<?xml version="1.0" standalone="no"?>
<!DOCTYPE svg PUBLIC "-//W3C//DTD SVG 20010904//EN"
 "http://www.w3.org/TR/2001/REC-SVG-20010904/DTD/svg10.dtd">
<svg version="1.0" xmlns="http://www.w3.org/2000/svg"
 width="96.000000pt" height="96.000000pt" viewBox="0 0 96.000000 96.000000"
 preserveAspectRatio="xMidYMid meet">

<g transform="translate(0.000000,96.000000) scale(0.100000,-0.100000)"
fill="#000000" stroke="none">
<path d="M303 817 c-73 -45 -133 -84 -133 -87 0 -3 15 -15 34 -27 l33 -22 101
62 101 62 1 48 c0 26 -1 47 -2 47 -2 0 -63 -37 -135 -83z"/>
<path d="M520 853 l1 -48 100 -62 101 -61 34 20 c19 11 34 23 34 26 0 6 -83
59 -232 150 l-38 23 0 -48z"/>
<path d="M398 677 c-37 -23 -68 -45 -68 -48 0 -4 34 -28 75 -54 l76 -47 74 47
c41 25 75 49 75 53 0 10 -136 92 -151 92 -8 -1 -44 -20 -81 -43z"/>
<path d="M120 485 l0 -176 40 23 40 23 0 127 0 127 -27 19 c-16 10 -34 22 -40
26 -10 6 -13 -31 -13 -169z"/>
<path d="M797 635 l-37 -26 0 -127 0 -127 40 -23 40 -23 0 176 c0 96 -1 175
-3 175 -1 0 -19 -11 -40 -25z"/>
<path d="M280 457 l0 -102 38 -22 c20 -12 56 -34 80 -48 l42 -26 0 99 0 100
-80 51 -80 51 0 -103z"/>
<path d="M598 508 l-78 -50 0 -100 0 -99 43 26 c23 14 59 36 79 48 l38 22 0
103 c0 56 -1 102 -2 101 -2 0 -38 -23 -80 -51z"/>
<path d="M193 259 c-18 -12 -33 -22 -33 -24 0 -1 53 -36 118 -76 64 -40 127
-79 140 -87 22 -14 22 -14 22 34 l-1 49 -93 57 c-51 32 -99 60 -107 63 -8 2
-29 -5 -46 -16z"/>
<path d="M623 218 l-102 -63 -1 -49 c0 -48 0 -48 23 -34 12 8 75 47 140 87 64
40 117 75 117 76 0 4 -66 45 -71 45 -2 0 -50 -28 -106 -62z"/>
</g>
</svg>
